<mxfile host="app.diagrams.net" agent="Mozilla/5.0 (Macintosh; Intel Mac OS X 10_15_7) AppleWebKit/537.36 (KHTML, like Gecko) Chrome/138.0.0.0 Safari/537.36" version="28.0.7">
  <diagram name="Pagina-1" id="0xtfy86GIRZt7p4yuB1P">
    <mxGraphModel dx="1185" dy="644" grid="1" gridSize="10" guides="1" tooltips="1" connect="1" arrows="1" fold="1" page="1" pageScale="1" pageWidth="827" pageHeight="1169" math="0" shadow="0">
      <root>
        <mxCell id="0" />
        <mxCell id="1" parent="0" />
        <mxCell id="Mw16GpzwjAbaG8Gv36St-2" value="Utente con&lt;div&gt;permesso&lt;/div&gt;&lt;div&gt;di scrittura&lt;/div&gt;" style="shape=umlActor;verticalLabelPosition=bottom;verticalAlign=top;html=1;outlineConnect=0;" parent="1" vertex="1">
          <mxGeometry x="20" y="610" width="30" height="60" as="geometry" />
        </mxCell>
        <mxCell id="Mw16GpzwjAbaG8Gv36St-7" value="" style="swimlane;startSize=0;" parent="1" vertex="1">
          <mxGeometry x="200" y="20" width="550" height="720" as="geometry" />
        </mxCell>
        <mxCell id="Mw16GpzwjAbaG8Gv36St-19" value="Registrazione" style="ellipse;whiteSpace=wrap;html=1;" parent="Mw16GpzwjAbaG8Gv36St-7" vertex="1">
          <mxGeometry x="47.5" width="80" height="50" as="geometry" />
        </mxCell>
        <mxCell id="Mw16GpzwjAbaG8Gv36St-20" value="Login" style="ellipse;whiteSpace=wrap;html=1;" parent="Mw16GpzwjAbaG8Gv36St-7" vertex="1">
          <mxGeometry x="68" y="60" width="75" height="40" as="geometry" />
        </mxCell>
        <mxCell id="Mw16GpzwjAbaG8Gv36St-23" value="Crea note" style="ellipse;whiteSpace=wrap;html=1;" parent="Mw16GpzwjAbaG8Gv36St-7" vertex="1">
          <mxGeometry x="52.5" y="110" width="80" height="40" as="geometry" />
        </mxCell>
        <mxCell id="Mw16GpzwjAbaG8Gv36St-31" value="Legge note" style="ellipse;whiteSpace=wrap;html=1;" parent="Mw16GpzwjAbaG8Gv36St-7" vertex="1">
          <mxGeometry x="152" y="250" width="82.5" height="40" as="geometry" />
        </mxCell>
        <mxCell id="Mw16GpzwjAbaG8Gv36St-42" value="Cerca note" style="ellipse;whiteSpace=wrap;html=1;" parent="Mw16GpzwjAbaG8Gv36St-7" vertex="1">
          <mxGeometry x="20" y="210" width="80" height="40" as="geometry" />
        </mxCell>
        <mxCell id="Mw16GpzwjAbaG8Gv36St-44" value="Organizza note" style="ellipse;whiteSpace=wrap;html=1;" parent="Mw16GpzwjAbaG8Gv36St-7" vertex="1">
          <mxGeometry x="52.5" y="160" width="80" height="40" as="geometry" />
        </mxCell>
        <mxCell id="Mw16GpzwjAbaG8Gv36St-53" value="Gestisce permessi di condivisione" style="ellipse;whiteSpace=wrap;html=1;" parent="Mw16GpzwjAbaG8Gv36St-7" vertex="1">
          <mxGeometry x="75" y="320" width="115" height="50" as="geometry" />
        </mxCell>
        <mxCell id="Mw16GpzwjAbaG8Gv36St-54" value="Elimina note" style="ellipse;whiteSpace=wrap;html=1;" parent="Mw16GpzwjAbaG8Gv36St-7" vertex="1">
          <mxGeometry x="75" y="380" width="90" height="30" as="geometry" />
        </mxCell>
        <mxCell id="Mw16GpzwjAbaG8Gv36St-56" value="Crea copia" style="ellipse;whiteSpace=wrap;html=1;" parent="Mw16GpzwjAbaG8Gv36St-7" vertex="1">
          <mxGeometry x="75" y="430" width="100" height="30" as="geometry" />
        </mxCell>
        <mxCell id="Mw16GpzwjAbaG8Gv36St-58" value="Modifica nota" style="ellipse;whiteSpace=wrap;html=1;" parent="Mw16GpzwjAbaG8Gv36St-7" vertex="1">
          <mxGeometry x="42" y="520" width="101" height="30" as="geometry" />
        </mxCell>
        <mxCell id="Mw16GpzwjAbaG8Gv36St-65" value="Elimina proprio utente dalla nota di scrittura" style="ellipse;whiteSpace=wrap;html=1;" parent="Mw16GpzwjAbaG8Gv36St-7" vertex="1">
          <mxGeometry x="70" y="585" width="140" height="50" as="geometry" />
        </mxCell>
        <mxCell id="Mw16GpzwjAbaG8Gv36St-9" value="Utente" style="shape=umlActor;verticalLabelPosition=bottom;verticalAlign=top;html=1;outlineConnect=0;" parent="1" vertex="1">
          <mxGeometry x="40" y="40" width="30" height="60" as="geometry" />
        </mxCell>
        <mxCell id="dtjC67Lx3temib-lWZ5f-4" style="edgeStyle=orthogonalEdgeStyle;rounded=0;orthogonalLoop=1;jettySize=auto;html=1;exitX=0.5;exitY=0.5;exitDx=0;exitDy=0;exitPerimeter=0;" parent="1" source="Mw16GpzwjAbaG8Gv36St-3" target="Mw16GpzwjAbaG8Gv36St-9" edge="1">
          <mxGeometry relative="1" as="geometry" />
        </mxCell>
        <mxCell id="Mw16GpzwjAbaG8Gv36St-3" value="Utente Proprietario" style="shape=umlActor;verticalLabelPosition=bottom;verticalAlign=top;html=1;outlineConnect=0;" parent="1" vertex="1">
          <mxGeometry x="90" y="450" width="30" height="70" as="geometry" />
        </mxCell>
        <mxCell id="dtjC67Lx3temib-lWZ5f-3" value="" style="endArrow=classic;html=1;rounded=0;exitX=0.5;exitY=0;exitDx=0;exitDy=0;exitPerimeter=0;entryX=0;entryY=0.3333333333333333;entryDx=0;entryDy=0;entryPerimeter=0;" parent="1" source="Mw16GpzwjAbaG8Gv36St-2" target="Mw16GpzwjAbaG8Gv36St-9" edge="1">
          <mxGeometry width="50" height="50" relative="1" as="geometry">
            <mxPoint x="20" y="400" as="sourcePoint" />
            <mxPoint x="40" y="70" as="targetPoint" />
          </mxGeometry>
        </mxCell>
        <mxCell id="dtjC67Lx3temib-lWZ5f-5" value="Utente con&amp;nbsp;&lt;div&gt;permesso&amp;nbsp;&lt;/div&gt;&lt;div&gt;di lettura&lt;div&gt;&lt;br&gt;&lt;/div&gt;&lt;/div&gt;" style="shape=umlActor;verticalLabelPosition=bottom;verticalAlign=top;html=1;outlineConnect=0;" parent="1" vertex="1">
          <mxGeometry x="100" y="270" width="30" height="60" as="geometry" />
        </mxCell>
        <mxCell id="dtjC67Lx3temib-lWZ5f-8" style="edgeStyle=orthogonalEdgeStyle;rounded=0;orthogonalLoop=1;jettySize=auto;html=1;entryX=1;entryY=1;entryDx=0;entryDy=0;entryPerimeter=0;" parent="1" source="dtjC67Lx3temib-lWZ5f-5" target="Mw16GpzwjAbaG8Gv36St-9" edge="1">
          <mxGeometry relative="1" as="geometry" />
        </mxCell>
        <mxCell id="hitlgoRC3pU64eQUoGjr-1" value="" style="endArrow=none;html=1;rounded=0;entryX=0;entryY=0.5;entryDx=0;entryDy=0;" edge="1" parent="1" source="Mw16GpzwjAbaG8Gv36St-2" target="Mw16GpzwjAbaG8Gv36St-65">
          <mxGeometry width="50" height="50" relative="1" as="geometry">
            <mxPoint x="460" y="520" as="sourcePoint" />
            <mxPoint x="510" y="470" as="targetPoint" />
          </mxGeometry>
        </mxCell>
        <mxCell id="hitlgoRC3pU64eQUoGjr-3" value="" style="endArrow=none;html=1;rounded=0;exitX=1;exitY=0.3333333333333333;exitDx=0;exitDy=0;exitPerimeter=0;entryX=0.03;entryY=0.733;entryDx=0;entryDy=0;entryPerimeter=0;" edge="1" parent="1" source="Mw16GpzwjAbaG8Gv36St-2" target="Mw16GpzwjAbaG8Gv36St-58">
          <mxGeometry width="50" height="50" relative="1" as="geometry">
            <mxPoint x="460" y="520" as="sourcePoint" />
            <mxPoint x="510" y="470" as="targetPoint" />
          </mxGeometry>
        </mxCell>
        <mxCell id="hitlgoRC3pU64eQUoGjr-4" value="" style="endArrow=none;html=1;rounded=0;entryX=0;entryY=0;entryDx=0;entryDy=0;" edge="1" parent="1" source="Mw16GpzwjAbaG8Gv36St-3" target="Mw16GpzwjAbaG8Gv36St-58">
          <mxGeometry width="50" height="50" relative="1" as="geometry">
            <mxPoint x="460" y="520" as="sourcePoint" />
            <mxPoint x="510" y="470" as="targetPoint" />
          </mxGeometry>
        </mxCell>
        <mxCell id="hitlgoRC3pU64eQUoGjr-5" value="" style="endArrow=none;html=1;rounded=0;entryX=0;entryY=0.5;entryDx=0;entryDy=0;" edge="1" parent="1" source="Mw16GpzwjAbaG8Gv36St-3" target="Mw16GpzwjAbaG8Gv36St-56">
          <mxGeometry width="50" height="50" relative="1" as="geometry">
            <mxPoint x="460" y="520" as="sourcePoint" />
            <mxPoint x="510" y="470" as="targetPoint" />
          </mxGeometry>
        </mxCell>
        <mxCell id="hitlgoRC3pU64eQUoGjr-6" value="" style="endArrow=none;html=1;rounded=0;exitX=0.5;exitY=0.5;exitDx=0;exitDy=0;exitPerimeter=0;entryX=0;entryY=0.5;entryDx=0;entryDy=0;" edge="1" parent="1" source="Mw16GpzwjAbaG8Gv36St-3" target="Mw16GpzwjAbaG8Gv36St-54">
          <mxGeometry width="50" height="50" relative="1" as="geometry">
            <mxPoint x="460" y="520" as="sourcePoint" />
            <mxPoint x="510" y="470" as="targetPoint" />
          </mxGeometry>
        </mxCell>
        <mxCell id="hitlgoRC3pU64eQUoGjr-7" value="" style="endArrow=none;html=1;rounded=0;exitX=0.75;exitY=0.1;exitDx=0;exitDy=0;exitPerimeter=0;entryX=0;entryY=0.5;entryDx=0;entryDy=0;" edge="1" parent="1" source="Mw16GpzwjAbaG8Gv36St-3" target="Mw16GpzwjAbaG8Gv36St-53">
          <mxGeometry width="50" height="50" relative="1" as="geometry">
            <mxPoint x="460" y="520" as="sourcePoint" />
            <mxPoint x="510" y="470" as="targetPoint" />
          </mxGeometry>
        </mxCell>
        <mxCell id="hitlgoRC3pU64eQUoGjr-9" value="" style="endArrow=none;html=1;rounded=0;exitX=0.75;exitY=0.1;exitDx=0;exitDy=0;exitPerimeter=0;entryX=0;entryY=0.5;entryDx=0;entryDy=0;" edge="1" parent="1" source="dtjC67Lx3temib-lWZ5f-5" target="Mw16GpzwjAbaG8Gv36St-31">
          <mxGeometry width="50" height="50" relative="1" as="geometry">
            <mxPoint x="460" y="360" as="sourcePoint" />
            <mxPoint x="510" y="310" as="targetPoint" />
          </mxGeometry>
        </mxCell>
        <mxCell id="hitlgoRC3pU64eQUoGjr-10" value="" style="endArrow=none;html=1;rounded=0;exitX=0.5;exitY=0.5;exitDx=0;exitDy=0;exitPerimeter=0;entryX=0;entryY=0;entryDx=0;entryDy=0;" edge="1" parent="1" source="Mw16GpzwjAbaG8Gv36St-9" target="Mw16GpzwjAbaG8Gv36St-42">
          <mxGeometry width="50" height="50" relative="1" as="geometry">
            <mxPoint x="460" y="360" as="sourcePoint" />
            <mxPoint x="510" y="310" as="targetPoint" />
          </mxGeometry>
        </mxCell>
        <mxCell id="hitlgoRC3pU64eQUoGjr-11" value="" style="endArrow=none;html=1;rounded=0;exitX=0.5;exitY=0.5;exitDx=0;exitDy=0;exitPerimeter=0;" edge="1" parent="1" source="Mw16GpzwjAbaG8Gv36St-9" target="Mw16GpzwjAbaG8Gv36St-44">
          <mxGeometry width="50" height="50" relative="1" as="geometry">
            <mxPoint x="460" y="360" as="sourcePoint" />
            <mxPoint x="510" y="310" as="targetPoint" />
          </mxGeometry>
        </mxCell>
        <mxCell id="hitlgoRC3pU64eQUoGjr-12" value="" style="endArrow=none;html=1;rounded=0;entryX=0;entryY=0.5;entryDx=0;entryDy=0;" edge="1" parent="1" source="Mw16GpzwjAbaG8Gv36St-9" target="Mw16GpzwjAbaG8Gv36St-23">
          <mxGeometry width="50" height="50" relative="1" as="geometry">
            <mxPoint x="460" y="360" as="sourcePoint" />
            <mxPoint x="510" y="310" as="targetPoint" />
          </mxGeometry>
        </mxCell>
        <mxCell id="hitlgoRC3pU64eQUoGjr-13" value="" style="endArrow=none;html=1;rounded=0;entryX=0;entryY=0.5;entryDx=0;entryDy=0;" edge="1" parent="1" source="Mw16GpzwjAbaG8Gv36St-9" target="Mw16GpzwjAbaG8Gv36St-20">
          <mxGeometry width="50" height="50" relative="1" as="geometry">
            <mxPoint x="460" y="360" as="sourcePoint" />
            <mxPoint x="510" y="310" as="targetPoint" />
          </mxGeometry>
        </mxCell>
        <mxCell id="hitlgoRC3pU64eQUoGjr-14" value="" style="endArrow=none;html=1;rounded=0;entryX=0;entryY=0.5;entryDx=0;entryDy=0;" edge="1" parent="1" source="Mw16GpzwjAbaG8Gv36St-9" target="Mw16GpzwjAbaG8Gv36St-19">
          <mxGeometry width="50" height="50" relative="1" as="geometry">
            <mxPoint x="460" y="360" as="sourcePoint" />
            <mxPoint x="510" y="310" as="targetPoint" />
          </mxGeometry>
        </mxCell>
      </root>
    </mxGraphModel>
  </diagram>
</mxfile>
